<svg xmlns="http://www.w3.org/2000/svg" width="35" height="35" viewBox="0 0 35 35">
  <g id="Group_73" data-name="Group 73" transform="translate(-1402 -133)">
    <g id="Ellipse_10" data-name="Ellipse 10" transform="translate(1402 133)" fill="none" stroke="#fff" stroke-width="2">
      <circle cx="17.5" cy="17.5" r="17.5" stroke="none"/>
      <circle cx="17.5" cy="17.5" r="16.5" fill="none"/>
    </g>
    <path id="Icon_awesome-discord" data-name="Icon awesome-discord" d="M10.449,8.55a.921.921,0,1,1-.918-1A.959.959,0,0,1,10.449,8.55Zm-4.2-1a1,1,0,0,0,0,2,.959.959,0,0,0,.918-1A.953.953,0,0,0,6.246,7.551Zm9.5-5.7V18c-2.267-2-1.542-1.34-4.176-3.789l.477,1.665H1.845A1.849,1.849,0,0,1,0,14.022V1.854A1.849,1.849,0,0,1,1.845,0h12.06A1.849,1.849,0,0,1,15.75,1.854Zm-2.565,8.532a12.052,12.052,0,0,0-1.3-5.247A4.451,4.451,0,0,0,9.36,4.194l-.126.144a5.99,5.99,0,0,1,2.241,1.143A7.647,7.647,0,0,0,4.752,5.22c-.333.153-.531.261-.531.261A6.072,6.072,0,0,1,6.588,4.3L6.5,4.194a4.451,4.451,0,0,0-2.529.945,12.052,12.052,0,0,0-1.3,5.247,3.263,3.263,0,0,0,2.745,1.368s.333-.4.6-.747A2.8,2.8,0,0,1,4.446,9.945c.132.093.351.213.369.225a6.56,6.56,0,0,0,5.616.315,5.15,5.15,0,0,0,1.035-.531,2.84,2.84,0,0,1-1.629,1.071c.27.342.594.729.594.729A3.29,3.29,0,0,0,13.185,10.386Z" transform="translate(1412 142)" fill="#fff"/>
  </g>
</svg>
