<svg id="Component_2_1" data-name="Component 2 – 1" xmlns="http://www.w3.org/2000/svg" width="32.008" height="32" viewBox="0 0 32.008 32">
  <path id="Path_2" data-name="Path 2" d="M90.342,76.462a15.39,15.39,0,0,1-.135,2.02c.014-.1.025-.188.039-.284a15.017,15.017,0,0,1-1.031,3.775l.106-.255a14.576,14.576,0,0,1-1.028,2c-.195.319-.4.627-.62.932-.053.074-.11.149-.167.223-.028.039-.057.074-.085.11-.113.152.17-.216.053-.067s-.23.291-.351.432a14.994,14.994,0,0,1-1.559,1.588c-.138.124-.28.241-.425.361-.06.05-.12.1-.181.145s-.213.159.067-.053c-.05.039-.1.074-.149.113-.3.223-.606.436-.918.638a15.285,15.285,0,0,1-2.236,1.177l.255-.106A15.167,15.167,0,0,1,78.2,90.241c.1-.014.188-.025.284-.039a15.393,15.393,0,0,1-4.037,0c.1.014.188.025.284.039a15.016,15.016,0,0,1-3.775-1.031l.255.106a14.576,14.576,0,0,1-2-1.028c-.319-.195-.627-.4-.932-.62-.074-.053-.149-.11-.223-.167-.039-.028-.074-.057-.11-.085-.152-.113.216.17.067.053s-.291-.23-.432-.351A14.992,14.992,0,0,1,66,85.56c-.124-.138-.241-.28-.361-.425-.05-.06-.1-.12-.145-.181s-.159-.213.053.067c-.039-.05-.074-.1-.113-.149-.223-.3-.436-.606-.638-.918a15.287,15.287,0,0,1-1.177-2.236l.106.255A15.168,15.168,0,0,1,62.69,78.2c.014.1.025.188.039.284a15.393,15.393,0,0,1,0-4.037c-.014.1-.025.188-.039.284a15.017,15.017,0,0,1,1.031-3.775l-.106.255a14.575,14.575,0,0,1,1.028-2c.195-.319.4-.627.62-.932.053-.074.11-.149.167-.223.028-.039.057-.074.085-.11.113-.152-.17.216-.053.067s.23-.291.351-.432a14.993,14.993,0,0,1,1.559-1.588c.138-.124.28-.241.425-.362.06-.05.121-.1.181-.145s.213-.159-.067.053c.05-.039.1-.074.149-.113.3-.223.606-.436.918-.638a15.287,15.287,0,0,1,2.236-1.177l-.255.106a15.168,15.168,0,0,1,3.775-1.031c-.1.014-.188.025-.284.039a15.393,15.393,0,0,1,4.037,0c-.1-.014-.188-.025-.284-.039a15.017,15.017,0,0,1,3.775,1.031l-.255-.106a14.575,14.575,0,0,1,2,1.028c.319.195.627.4.932.62.074.053.149.11.223.167.039.028.074.057.11.085.152.113-.216-.17-.067-.053s.291.23.432.351a14.993,14.993,0,0,1,1.588,1.559c.124.138.241.28.362.425.05.06.1.12.145.181s.159.213-.053-.067c.039.05.074.1.113.149.223.3.436.606.638.918a15.286,15.286,0,0,1,1.177,2.236l-.106-.255a15.167,15.167,0,0,1,1.031,3.775c-.014-.1-.025-.188-.039-.284a15.3,15.3,0,0,1,.135,2.017,1.063,1.063,0,0,0,2.126,0,15.986,15.986,0,0,0-2.931-9.225A16.3,16.3,0,0,0,81.882,61.4a15.978,15.978,0,0,0-17.7,4.809,16.61,16.61,0,0,0-2.569,4.3,15.788,15.788,0,0,0-1.106,4.8A15.98,15.98,0,0,0,69.789,91a16.535,16.535,0,0,0,4.948,1.361A15.987,15.987,0,0,0,92.263,79a17.471,17.471,0,0,0,.209-2.541A1.076,1.076,0,0,0,91.408,75.4,1.091,1.091,0,0,0,90.342,76.462Z" transform="translate(-60.463 -60.459)" fill="#fff"/>
  <path id="Path_3" data-name="Path 3" d="M456.155,317.371V307.9a12,12,0,0,1,.028-1.556c-.014.1-.025.188-.039.284a2.871,2.871,0,0,1,.191-.688l-.106.255a2.8,2.8,0,0,1,.245-.454.929.929,0,0,1,.082-.113c-.007,0-.191.234-.067.089.057-.064.11-.128.174-.188s.113-.106.17-.156.195-.113-.071.05c.039-.025.074-.053.113-.082a2.934,2.934,0,0,1,.454-.245l-.255.106a2.917,2.917,0,0,1,.688-.191c-.1.014-.188.025-.284.039a7.6,7.6,0,0,1,1.024-.028h.911a1.063,1.063,0,1,0,0-2.126h-1.506a3.849,3.849,0,0,0-2.91,1.3,3.961,3.961,0,0,0-.968,2.587V315.1c0,.748-.014,1.5,0,2.247v.035a1.076,1.076,0,0,0,1.063,1.063,1.094,1.094,0,0,0,1.063-1.07Z" transform="translate(-440.074 -294.308)" fill="#fff"/>
  <path id="Path_4" data-name="Path 4" d="M377.266,473.7H370.84a1.063,1.063,0,0,0,0,2.126h6.426a1.063,1.063,0,1,0,0-2.126Z" transform="translate(-358.814 -459.054)" fill="#fff"/>
</svg>
