<svg id="GLYPH" xmlns="http://www.w3.org/2000/svg" width="32" height="32" viewBox="0 0 32 32">
  <g id="Component_1_1" data-name="Component 1 – 1">
    <path id="Path_7" data-name="Path 7" d="M16,32A16,16,0,1,0,0,16,16,16,0,0,0,16,32ZM16,2.191A13.809,13.809,0,1,1,2.191,16,13.809,13.809,0,0,1,16,2.191Z" fill="#fff"/>
    <path id="Path_8" data-name="Path 8" d="M8.276,6.719A1.556,1.556,0,1,0,9.832,8.276,1.556,1.556,0,0,0,8.276,6.719Zm6.232-1.538a4.1,4.1,0,0,0-.264-1.418,2.51,2.51,0,0,0-1.456-1.456,4.1,4.1,0,0,0-1.418-.264C10.56,2,10.322,2,8.276,2s-2.284,0-3.094.044a4.1,4.1,0,0,0-1.418.264A2.51,2.51,0,0,0,2.308,3.764a4.1,4.1,0,0,0-.264,1.418C2,5.991,2,6.23,2,8.276s0,2.284.044,3.094a4.305,4.305,0,0,0,.264,1.425,2.473,2.473,0,0,0,.571.879,2.441,2.441,0,0,0,.885.571,4.1,4.1,0,0,0,1.418.264c.81.044,1.048.044,3.094.044s2.284,0,3.094-.044a4.1,4.1,0,0,0,1.418-.264,2.441,2.441,0,0,0,.885-.571,2.473,2.473,0,0,0,.571-.879,4.142,4.142,0,0,0,.264-1.425c.044-.81.044-1.048.044-3.094s0-2.284-.044-3.094ZM12.914,10.2a3.6,3.6,0,0,1-.245,1.13,2.423,2.423,0,0,1-1.337,1.337,3.6,3.6,0,0,1-1.136.22H6.355a3.6,3.6,0,0,1-1.136-.22,2.336,2.336,0,0,1-1.337-1.337A3.445,3.445,0,0,1,3.669,10.2V6.355A3.445,3.445,0,0,1,3.883,5.22a2.2,2.2,0,0,1,.54-.822,2.253,2.253,0,0,1,.8-.515,3.6,3.6,0,0,1,1.136-.22H10.2a3.6,3.6,0,0,1,1.136.22A2.336,2.336,0,0,1,12.669,5.22a3.6,3.6,0,0,1,.22,1.136c0,.5,0,.628,0,1.92s.044,1.425.025,1.92Zm-1-4.669a1.494,1.494,0,0,0-.885-.885,2.51,2.51,0,0,0-.866-.138H6.393a2.51,2.51,0,0,0-.866.163,1.494,1.494,0,0,0-.885.854,2.68,2.68,0,0,0-.132.866v3.766a2.68,2.68,0,0,0,.163.866,1.494,1.494,0,0,0,.885.885,2.68,2.68,0,0,0,.835.163h3.766a2.51,2.51,0,0,0,.866-.163,1.494,1.494,0,0,0,.885-.885,2.51,2.51,0,0,0,.163-.866V6.393a2.372,2.372,0,0,0-.163-.866Zm-3.634,5.14a2.391,2.391,0,0,1-2.391-2.4h0a2.4,2.4,0,1,1,2.391,2.4Zm2.51-4.324a.565.565,0,0,1,0-1.123h0a.565.565,0,0,1,0,1.123Z" transform="translate(7.724 7.724)" fill="#fff"/>
  </g>
</svg>
