<svg xmlns="http://www.w3.org/2000/svg" width="32" height="32" viewBox="0 0 32 32">
  <g id="Group_5" data-name="Group 5" transform="translate(-3.594 -3.594)">
    <circle id="Ellipse_1" data-name="Ellipse 1" cx="15" cy="15" r="15" transform="translate(4.594 4.594)" fill="none" stroke="#fff" stroke-miterlimit="10" stroke-width="2"/>
    <path id="Path_9" data-name="Path 9" d="M44.885,31.823c-4.568,0-6.942,2.938-6.887,6.141a4.588,4.588,0,0,0,2.215,3.928c.2.088.309.049.351-.135.034-.14.2-.829.273-1.149a.3.3,0,0,0-.078-.291A3.9,3.9,0,0,1,39.932,38a4.414,4.414,0,0,1,4.706-4.4,4.186,4.186,0,0,1,4.5,4.126c.044,2.743-1.365,4.646-3.247,4.646a1.527,1.527,0,0,1-1.6-1.836,19.305,19.305,0,0,0,.819-3.38,1.324,1.324,0,0,0-1.365-1.43c-1.063,0-1.9,1.056-1.872,2.465a3.57,3.57,0,0,0,.343,1.505s-.975,4.253-1.152,5.044a11.422,11.422,0,0,0,.14,3.71.112.112,0,0,0,.2.052,12.905,12.905,0,0,0,1.669-3.263c.12-.476.616-2.413.616-2.413a2.93,2.93,0,0,0,2.447,1.165c3.193,0,5.447-2.813,5.384-6.31-.06-3.351-2.959-5.86-6.63-5.86" transform="translate(-25.164 -20.593)" fill="#fff"/>
  </g>
</svg>
