<svg xmlns="http://www.w3.org/2000/svg" width="35" height="35" viewBox="0 0 35 35">
  <g id="Group_76" data-name="Group 76" transform="translate(-1303 -133)">
    <g id="Ellipse_12" data-name="Ellipse 12" transform="translate(1303 133)" fill="none" stroke="#fff" stroke-width="2">
      <circle cx="17.5" cy="17.5" r="17.5" stroke="none"/>
      <circle cx="17.5" cy="17.5" r="16.5" fill="none"/>
    </g>
    <path id="Icon_simple-tiktok" data-name="Icon simple-tiktok" d="M10.512.015C11.486,0,12.453.007,13.42,0a4.632,4.632,0,0,0,1.3,3.1,5.244,5.244,0,0,0,3.153,1.331v3a7.96,7.96,0,0,1-3.123-.721,9.188,9.188,0,0,1-1.2-.692c-.007,2.171.007,4.343-.015,6.507a5.68,5.68,0,0,1-1,2.93A5.54,5.54,0,0,1,8.132,17.84,5.422,5.422,0,0,1,5.1,17.074a5.608,5.608,0,0,1-2.714-4.246c-.015-.372-.022-.744-.007-1.108A5.6,5.6,0,0,1,8.869,6.752c.015,1.1-.03,2.2-.03,3.3A2.551,2.551,0,0,0,5.582,11.63a2.95,2.95,0,0,0-.1,1.2,2.531,2.531,0,0,0,2.6,2.134,2.5,2.5,0,0,0,2.06-1.2,1.716,1.716,0,0,0,.3-.788c.074-1.331.045-2.655.052-3.986.007-3-.007-5.986.015-8.976Z" transform="translate(1310.631 142)" fill="#fff"/>
  </g>
</svg>
