<svg xmlns="http://www.w3.org/2000/svg" width="32" height="32" viewBox="0 0 32 32">
  <g id="Group_4" data-name="Group 4" transform="translate(-1316 -280)">
    <g id="GLYPH" transform="translate(1316 280)">
      <path id="Path_5" data-name="Path 5" d="M16,32A16,16,0,1,0,0,16,16,16,0,0,0,16,32ZM16,2.191A13.809,13.809,0,1,1,2.191,16,13.809,13.809,0,0,1,16,2.191Z" fill="#fff"/>
    </g>
    <path id="Path_6" data-name="Path 6" d="M27.452,58.969l-.008.008.008.188c0,.068,0,.133,0,.2A7.478,7.478,0,0,1,16.1,65.761a5.188,5.188,0,0,0,3.611-1.188,3.205,3.205,0,0,1-2.407-1.85,3.647,3.647,0,0,0,1.217,0s-2.1-.861-2.054-2.611a4.271,4.271,0,0,0,1.091.3,2.884,2.884,0,0,1-.761-3.7,6.038,6.038,0,0,0,5.4,2.813l.005,0a2.647,2.647,0,0,1,4.508-2.318l.021-.01s.157-.042.372-.1a7.991,7.991,0,0,0,1.1-.377,2.524,2.524,0,0,1-.874,1.274l-.063.044.071,0a3.267,3.267,0,0,0,1.321-.353A8.279,8.279,0,0,1,27.452,58.969Z" transform="translate(1309.9 234.6)" fill="#fff"/>
  </g>
</svg>
